<svg xmlns="http://www.w3.org/2000/svg" xmlns:xlink="http://www.w3.org/1999/xlink" contentStyleType="text/css" data-diagram-type="DESCRIPTION" height="1072px" preserveAspectRatio="none" style="width:563px;height:1072px;background:#FFFFFF;" version="1.1" viewBox="0 0 563 1072" width="563px" zoomAndPan="magnify"><?plantuml 1.2026.3?><defs/><g><g class="title" data-source-line="1"><text fill="#000000" font-family="sans-serif" font-size="14" font-weight="700" lengthAdjust="spacing" textLength="445.4434" x="55.2783" y="23.5352">Smart Pet Care - Provisional Account and Pet-Care Use Cases</text></g><!--cluster Smart Pet Care system--><g class="cluster" data-qualified-name="Smart Pet Care system" data-source-line="12" id="ent0005"><rect fill="none" height="1023" rx="2.5" ry="2.5" style="stroke:#181818;stroke-width:1;" width="244" x="303" y="41.4883"/><text fill="#000000" font-family="sans-serif" font-size="14" font-weight="700" lengthAdjust="spacing" textLength="162.3672" x="343.8164" y="57.0234">Smart Pet Care system</text></g><!--cluster AccountAccess--><g class="cluster" data-qualified-name="Smart Pet Care system.AccountAccess" data-source-line="13" id="ent0006"><rect fill="none" height="580" rx="2.5" ry="2.5" style="stroke:#181818;stroke-width:1;" width="223" x="313.5" y="68.4883"/><text fill="#000000" font-family="sans-serif" font-size="14" font-weight="700" lengthAdjust="spacing" textLength="109.9971" x="370.0015" y="84.0234">Account access</text></g><!--cluster PetCare--><g class="cluster" data-qualified-name="Smart Pet Care system.PetCare" data-source-line="25" id="ent0015"><rect fill="none" height="400" rx="2.5" ry="2.5" style="stroke:#181818;stroke-width:1;" width="228" x="311" y="656.4883"/><text fill="#000000" font-family="sans-serif" font-size="14" font-weight="700" lengthAdjust="spacing" textLength="57.3262" x="396.3369" y="672.0234">Pet care</text></g><!--entity Owner--><g class="entity" data-qualified-name="Owner" data-source-line="8" id="ent0002"><ellipse cx="57.9038" cy="431.9883" fill="#F1F1F1" rx="8" ry="8" style="stroke:#181818;stroke-width:0.5;"/><path d="M57.9038,439.9883 L57.9038,466.9883 M44.9038,447.9883 L70.9038,447.9883 M57.9038,466.9883 L44.9038,481.9883 M57.9038,466.9883 L70.9038,481.9883" fill="none" style="stroke:#181818;stroke-width:0.5;"/><text fill="#000000" font-family="sans-serif" font-size="14" lengthAdjust="spacing" textLength="20.7744" x="24.5" y="497.0234">Pet</text><text fill="#000000" font-family="sans-serif" font-size="14" lengthAdjust="spacing" textLength="4.4297" x="45.2744" y="497.0234">&#160;</text><text fill="#000000" font-family="sans-serif" font-size="14" lengthAdjust="spacing" textLength="41.6035" x="49.7041" y="497.0234">owner</text></g><!--entity Google--><g class="entity" data-qualified-name="Google" data-source-line="9" id="ent0003"><ellipse cx="57.7515" cy="578.4883" fill="#F1F1F1" rx="8" ry="8" style="stroke:#181818;stroke-width:0.5;"/><path d="M57.7515,586.4883 L57.7515,613.4883 M44.7515,594.4883 L70.7515,594.4883 M57.7515,613.4883 L44.7515,628.4883 M57.7515,613.4883 L70.7515,628.4883" fill="none" style="stroke:#181818;stroke-width:0.5;"/><text fill="#000000" font-family="sans-serif" font-size="14" lengthAdjust="spacing" textLength="47.8926" x="6" y="643.5234">Google</text><text fill="#000000" font-family="sans-serif" font-size="14" lengthAdjust="spacing" textLength="4.4297" x="53.8926" y="643.5234">&#160;</text><text fill="#000000" font-family="sans-serif" font-size="14" lengthAdjust="spacing" textLength="51.1807" x="58.3223" y="643.5234">identity</text><text fill="#000000" font-family="sans-serif" font-size="14" lengthAdjust="spacing" textLength="56.7725" x="6" y="660.0117">provider</text></g><!--entity FCM--><g class="entity" data-qualified-name="FCM" data-source-line="10" id="ent0004"><ellipse cx="57.9116" cy="931.4883" fill="#F1F1F1" rx="8" ry="8" style="stroke:#181818;stroke-width:0.5;"/><path d="M57.9116,939.4883 L57.9116,966.4883 M44.9116,947.4883 L70.9116,947.4883 M57.9116,966.4883 L44.9116,981.4883 M57.9116,966.4883 L70.9116,981.4883" fill="none" style="stroke:#181818;stroke-width:0.5;"/><text fill="#000000" font-family="sans-serif" font-size="14" lengthAdjust="spacing" textLength="56.5605" x="7.5" y="996.5234">Firebase</text><text fill="#000000" font-family="sans-serif" font-size="14" lengthAdjust="spacing" textLength="4.4297" x="64.0605" y="996.5234">&#160;</text><text fill="#000000" font-family="sans-serif" font-size="14" lengthAdjust="spacing" textLength="39.833" x="68.4902" y="996.5234">Cloud</text><text fill="#000000" font-family="sans-serif" font-size="14" lengthAdjust="spacing" textLength="72.0576" x="7.5" y="1013.0117">Messaging</text></g><!--entity UCRegister--><g class="entity" data-qualified-name="Smart Pet Care system.AccountAccess.UCRegister" data-source-line="14" id="ent0007"><ellipse cx="425.0313" cy="119.5005" fill="#F1F1F1" rx="75.0313" ry="24.0122" style="stroke:#181818;stroke-width:0.5;"/><text fill="#000000" font-family="sans-serif" font-size="14" lengthAdjust="spacing" textLength="45.1924" x="402.4351" y="112.5372">UC-01</text><text fill="#000000" font-family="sans-serif" font-size="14" lengthAdjust="spacing" textLength="55.3301" x="368.5084" y="129.0255">Register</text><text fill="#000000" font-family="sans-serif" font-size="14" lengthAdjust="spacing" textLength="4.4297" x="423.8385" y="129.0255">&#160;</text><text fill="#000000" font-family="sans-serif" font-size="14" lengthAdjust="spacing" textLength="53.2861" x="428.2682" y="129.0255">account</text></g><!--entity UCConfirm--><g class="entity" data-qualified-name="Smart Pet Care system.AccountAccess.UCConfirm" data-source-line="15" id="ent0008"><ellipse cx="425.1353" cy="185.3141" fill="#F1F1F1" rx="100.1353" ry="23.8258" style="stroke:#181818;stroke-width:0.5;"/><text fill="#000000" font-family="sans-serif" font-size="14" lengthAdjust="spacing" textLength="45.1924" x="402.5391" y="178.0479">UC-02</text><text fill="#000000" font-family="sans-serif" font-size="14" lengthAdjust="spacing" textLength="54.9678" x="348.231" y="194.5362">Confirm</text><text fill="#000000" font-family="sans-serif" font-size="14" lengthAdjust="spacing" textLength="4.4297" x="403.1988" y="194.5362">&#160;</text><text fill="#000000" font-family="sans-serif" font-size="14" lengthAdjust="spacing" textLength="36.6953" x="407.6285" y="194.5362">email</text><text fill="#000000" font-family="sans-serif" font-size="14" lengthAdjust="spacing" textLength="4.4297" x="444.3238" y="194.5362">&#160;</text><text fill="#000000" font-family="sans-serif" font-size="14" lengthAdjust="spacing" textLength="53.2861" x="448.7535" y="194.5362">account</text></g><!--entity UCEmailLogin--><g class="entity" data-qualified-name="Smart Pet Care system.AccountAccess.UCEmailLogin" data-source-line="16" id="ent0009"><ellipse cx="425.0922" cy="251.4517" fill="#F1F1F1" rx="79.5922" ry="23.9635" style="stroke:#181818;stroke-width:0.5;"/><text fill="#000000" font-family="sans-serif" font-size="14" lengthAdjust="spacing" textLength="45.1924" x="402.496" y="244.4096">UC-03</text><text fill="#000000" font-family="sans-serif" font-size="14" lengthAdjust="spacing" textLength="29.0049" x="364.8505" y="260.8979">Sign</text><text fill="#000000" font-family="sans-serif" font-size="14" lengthAdjust="spacing" textLength="4.4297" x="393.8554" y="260.8979">&#160;</text><text fill="#000000" font-family="sans-serif" font-size="14" lengthAdjust="spacing" textLength="12.7354" x="398.2851" y="260.8979">in</text><text fill="#000000" font-family="sans-serif" font-size="14" lengthAdjust="spacing" textLength="4.4297" x="411.0205" y="260.8979">&#160;</text><text fill="#000000" font-family="sans-serif" font-size="14" lengthAdjust="spacing" textLength="28.7588" x="415.4501" y="260.8979">with</text><text fill="#000000" font-family="sans-serif" font-size="14" lengthAdjust="spacing" textLength="4.4297" x="444.2089" y="260.8979">&#160;</text><text fill="#000000" font-family="sans-serif" font-size="14" lengthAdjust="spacing" textLength="36.6953" x="448.6386" y="260.8979">email</text></g><!--entity UCGoogleLogin--><g class="entity" data-qualified-name="Smart Pet Care system.AccountAccess.UCGoogleLogin" data-source-line="17" id="ent0010"><ellipse cx="424.9781" cy="616.3935" fill="#F1F1F1" rx="86.4781" ry="23.9053" style="stroke:#181818;stroke-width:0.5;"/><text fill="#000000" font-family="sans-serif" font-size="14" lengthAdjust="spacing" textLength="45.1924" x="402.3819" y="609.257">UC-04</text><text fill="#000000" font-family="sans-serif" font-size="14" lengthAdjust="spacing" textLength="29.0049" x="359.1377" y="625.7453">Sign</text><text fill="#000000" font-family="sans-serif" font-size="14" lengthAdjust="spacing" textLength="4.4297" x="388.1426" y="625.7453">&#160;</text><text fill="#000000" font-family="sans-serif" font-size="14" lengthAdjust="spacing" textLength="12.7354" x="392.5723" y="625.7453">in</text><text fill="#000000" font-family="sans-serif" font-size="14" lengthAdjust="spacing" textLength="4.4297" x="405.3077" y="625.7453">&#160;</text><text fill="#000000" font-family="sans-serif" font-size="14" lengthAdjust="spacing" textLength="28.7588" x="409.7373" y="625.7453">with</text><text fill="#000000" font-family="sans-serif" font-size="14" lengthAdjust="spacing" textLength="4.4297" x="438.4961" y="625.7453">&#160;</text><text fill="#000000" font-family="sans-serif" font-size="14" lengthAdjust="spacing" textLength="47.8926" x="442.9258" y="625.7453">Google</text></g><!--entity UCSession--><g class="entity" data-qualified-name="Smart Pet Care system.AccountAccess.UCSession" data-source-line="18" id="ent0011"><ellipse cx="424.9092" cy="322.5628" fill="#F1F1F1" rx="82.4092" ry="29.0746" style="stroke:#181818;stroke-width:0.5;"/><text fill="#000000" font-family="sans-serif" font-size="14" lengthAdjust="spacing" textLength="45.1924" x="402.313" y="310.8051">UC-05</text><text fill="#000000" font-family="sans-serif" font-size="14" lengthAdjust="spacing" textLength="53.3477" x="349.5875" y="327.2934">Resume</text><text fill="#000000" font-family="sans-serif" font-size="14" lengthAdjust="spacing" textLength="4.4297" x="402.9351" y="327.2934">&#160;</text><text fill="#000000" font-family="sans-serif" font-size="14" lengthAdjust="spacing" textLength="92.8662" x="407.3648" y="327.2934">authenticated</text><text fill="#000000" font-family="sans-serif" font-size="14" lengthAdjust="spacing" textLength="50.5449" x="399.6368" y="343.7817">session</text></g><!--entity UCProfile--><g class="entity" data-qualified-name="Smart Pet Care system.AccountAccess.UCProfile" data-source-line="19" id="ent0012"><ellipse cx="424.8871" cy="393.3" fill="#F1F1F1" rx="103.3871" ry="23.8117" style="stroke:#181818;stroke-width:0.5;"/><text fill="#000000" font-family="sans-serif" font-size="14" lengthAdjust="spacing" textLength="45.1924" x="402.2909" y="386.0106">UC-06</text><text fill="#000000" font-family="sans-serif" font-size="14" lengthAdjust="spacing" textLength="52.7393" x="345.3544" y="402.4989">Manage</text><text fill="#000000" font-family="sans-serif" font-size="14" lengthAdjust="spacing" textLength="4.4297" x="398.0936" y="402.4989">&#160;</text><text fill="#000000" font-family="sans-serif" font-size="14" lengthAdjust="spacing" textLength="53.2861" x="402.5233" y="402.4989">account</text><text fill="#000000" font-family="sans-serif" font-size="14" lengthAdjust="spacing" textLength="4.4297" x="455.8094" y="402.4989">&#160;</text><text fill="#000000" font-family="sans-serif" font-size="14" lengthAdjust="spacing" textLength="44.1807" x="460.2391" y="402.4989">profile</text></g><!--entity UCLogout--><g class="entity" data-qualified-name="Smart Pet Care system.AccountAccess.UCLogout" data-source-line="20" id="ent0013"><ellipse cx="424.8879" cy="461.3156" fill="#F1F1F1" rx="40.8879" ry="25.3273" style="stroke:#181818;stroke-width:0.5;"/><text fill="#000000" font-family="sans-serif" font-size="14" lengthAdjust="spacing" textLength="45.1924" x="402.2917" y="456.382">UC-07</text><text fill="#000000" font-family="sans-serif" font-size="14" lengthAdjust="spacing" textLength="29.0049" x="396.9084" y="472.8702">Sign</text><text fill="#000000" font-family="sans-serif" font-size="14" lengthAdjust="spacing" textLength="4.4297" x="425.9133" y="472.8702">&#160;</text><text fill="#000000" font-family="sans-serif" font-size="14" lengthAdjust="spacing" textLength="22.5244" x="430.3429" y="472.8702">out</text></g><!--entity UCDeleteAccount--><g class="entity" data-qualified-name="Smart Pet Care system.AccountAccess.UCDeleteAccount" data-source-line="21" id="ent0014"><ellipse cx="425.163" cy="539.5132" fill="#F1F1F1" rx="74.663" ry="34.5249" style="stroke:#181818;stroke-width:0.5;"/><text fill="#000000" font-family="sans-serif" font-size="14" lengthAdjust="spacing" textLength="45.1924" x="402.5668" y="522.5847">UC-08</text><text fill="#000000" font-family="sans-serif" font-size="14" lengthAdjust="spacing" textLength="43.1689" x="374.7206" y="539.073">Delete</text><text fill="#000000" font-family="sans-serif" font-size="14" lengthAdjust="spacing" textLength="4.4297" x="417.8895" y="539.073">&#160;</text><text fill="#000000" font-family="sans-serif" font-size="14" lengthAdjust="spacing" textLength="53.2861" x="422.3192" y="539.073">account</text><text fill="#000000" font-family="sans-serif" font-size="14" lengthAdjust="spacing" textLength="43.4287" x="368.9408" y="555.5613">SCOPE</text><text fill="#000000" font-family="sans-serif" font-size="14" lengthAdjust="spacing" textLength="4.4297" x="412.3695" y="555.5613">&#160;</text><text fill="#000000" font-family="sans-serif" font-size="14" lengthAdjust="spacing" textLength="64.5859" x="416.7992" y="555.5613">DECISION</text></g><!--entity UCPets--><g class="entity" data-qualified-name="Smart Pet Care system.PetCare.UCPets" data-source-line="26" id="ent0016"><ellipse cx="424.8774" cy="707.3801" fill="#F1F1F1" rx="88.3774" ry="23.8918" style="stroke:#181818;stroke-width:0.5;"/><text fill="#000000" font-family="sans-serif" font-size="14" lengthAdjust="spacing" textLength="45.1924" x="402.2812" y="700.2215">UC-09</text><text fill="#000000" font-family="sans-serif" font-size="14" lengthAdjust="spacing" textLength="52.7393" x="357.4955" y="716.7098">Manage</text><text fill="#000000" font-family="sans-serif" font-size="14" lengthAdjust="spacing" textLength="4.4297" x="410.2348" y="716.7098">&#160;</text><text fill="#000000" font-family="sans-serif" font-size="14" lengthAdjust="spacing" textLength="21.8477" x="414.6645" y="716.7098">pet</text><text fill="#000000" font-family="sans-serif" font-size="14" lengthAdjust="spacing" textLength="4.4297" x="436.5121" y="716.7098">&#160;</text><text fill="#000000" font-family="sans-serif" font-size="14" lengthAdjust="spacing" textLength="51.3174" x="440.9418" y="716.7098">profiles</text></g><!--entity UCPhoto--><g class="entity" data-qualified-name="Smart Pet Care system.PetCare.UCPhoto" data-source-line="27" id="ent0017"><ellipse cx="424.8665" cy="792.2901" fill="#F1F1F1" rx="105.8665" ry="23.8018" style="stroke:#181818;stroke-width:0.5;"/><text fill="#000000" font-family="sans-serif" font-size="14" lengthAdjust="spacing" textLength="45.1924" x="402.2703" y="784.9846">UC-10</text><text fill="#000000" font-family="sans-serif" font-size="14" lengthAdjust="spacing" textLength="52.7393" x="343.3309" y="801.4729">Manage</text><text fill="#000000" font-family="sans-serif" font-size="14" lengthAdjust="spacing" textLength="4.4297" x="396.0701" y="801.4729">&#160;</text><text fill="#000000" font-family="sans-serif" font-size="14" lengthAdjust="spacing" textLength="21.8477" x="400.4998" y="801.4729">pet</text><text fill="#000000" font-family="sans-serif" font-size="14" lengthAdjust="spacing" textLength="4.4297" x="422.3475" y="801.4729">&#160;</text><text fill="#000000" font-family="sans-serif" font-size="14" lengthAdjust="spacing" textLength="79.625" x="426.7771" y="801.4729">photograph</text></g><!--entity UCReminders--><g class="entity" data-qualified-name="Smart Pet Care system.PetCare.UCReminders" data-source-line="28" id="ent0018"><ellipse cx="424.9695" cy="858.4212" fill="#F1F1F1" rx="82.9695" ry="23.9329" style="stroke:#181818;stroke-width:0.5;"/><text fill="#000000" font-family="sans-serif" font-size="14" lengthAdjust="spacing" textLength="45.1924" x="402.3733" y="851.3296">UC-11</text><text fill="#000000" font-family="sans-serif" font-size="14" lengthAdjust="spacing" textLength="52.7393" x="361.9798" y="867.8179">Manage</text><text fill="#000000" font-family="sans-serif" font-size="14" lengthAdjust="spacing" textLength="4.4297" x="414.719" y="867.8179">&#160;</text><text fill="#000000" font-family="sans-serif" font-size="14" lengthAdjust="spacing" textLength="68.8105" x="419.1487" y="867.8179">reminders</text></g><!--entity UCToken--><g class="entity" data-qualified-name="Smart Pet Care system.PetCare.UCToken" data-source-line="29" id="ent0019"><ellipse cx="425.0945" cy="1015.6513" fill="#F1F1F1" rx="87.5945" ry="32.663" style="stroke:#181818;stroke-width:0.5;"/><text fill="#000000" font-family="sans-serif" font-size="14" lengthAdjust="spacing" textLength="45.1924" x="402.4983" y="1000.0544">UC-12</text><text fill="#000000" font-family="sans-serif" font-size="14" lengthAdjust="spacing" textLength="82.291" x="354.5613" y="1016.5426">Synchronize</text><text fill="#000000" font-family="sans-serif" font-size="14" lengthAdjust="spacing" textLength="4.4297" x="436.8523" y="1016.5426">&#160;</text><text fill="#000000" font-family="sans-serif" font-size="14" lengthAdjust="spacing" textLength="54.3457" x="441.282" y="1016.5426">Android</text><text fill="#000000" font-family="sans-serif" font-size="14" lengthAdjust="spacing" textLength="77.2393" x="365.0066" y="1033.0309">notification</text><text fill="#000000" font-family="sans-serif" font-size="14" lengthAdjust="spacing" textLength="4.4297" x="442.2459" y="1033.0309">&#160;</text><text fill="#000000" font-family="sans-serif" font-size="14" lengthAdjust="spacing" textLength="38.5068" x="446.6756" y="1033.0309">token</text></g><!--entity UCNotification--><g class="entity" data-qualified-name="Smart Pet Care system.PetCare.UCNotification" data-source-line="30" id="ent0020"><ellipse cx="424.7507" cy="932.3395" fill="#F1F1F1" rx="89.2507" ry="31.8512" style="stroke:#181818;stroke-width:0.5;"/><text fill="#000000" font-family="sans-serif" font-size="14" lengthAdjust="spacing" textLength="45.1924" x="402.1545" y="917.4843">UC-13</text><text fill="#000000" font-family="sans-serif" font-size="14" lengthAdjust="spacing" textLength="36.1758" x="350.8132" y="933.9725">Open</text><text fill="#000000" font-family="sans-serif" font-size="14" lengthAdjust="spacing" textLength="4.4297" x="386.989" y="933.9725">&#160;</text><text fill="#000000" font-family="sans-serif" font-size="14" lengthAdjust="spacing" textLength="61.6738" x="391.4186" y="933.9725">reminder</text><text fill="#000000" font-family="sans-serif" font-size="14" lengthAdjust="spacing" textLength="4.4297" x="453.0925" y="933.9725">&#160;</text><text fill="#000000" font-family="sans-serif" font-size="14" lengthAdjust="spacing" textLength="41.166" x="457.5222" y="933.9725">status</text><text fill="#000000" font-family="sans-serif" font-size="14" lengthAdjust="spacing" textLength="32.5459" x="367.6433" y="950.4608">from</text><text fill="#000000" font-family="sans-serif" font-size="14" lengthAdjust="spacing" textLength="4.4297" x="400.1892" y="950.4608">&#160;</text><text fill="#000000" font-family="sans-serif" font-size="14" lengthAdjust="spacing" textLength="77.2393" x="404.6188" y="950.4608">notification</text></g><g class="link" data-entity-1="ent0002" data-entity-2="ent0007" data-link-type="dependency" id="lnk21"><polygon fill="#181818" points="349.8552,134.2499,340.1429,132.6156,345.0125,135.4943,342.1338,140.3639,349.8552,134.2499" style="stroke:#181818;stroke-width:1;"/><path d="M63.7343,423.2613 C70.9212,378.9444 88.2309,305.7042 128,256.4883 C183.6983,187.5592 276.1072,153.2 344.044,135.7432" fill="none" style="stroke:#181818;stroke-width:1;"/></g><g class="link" data-entity-1="ent0002" data-entity-2="ent0008" data-link-type="dependency" id="lnk22"><polygon fill="#181818" points="324.6729,209.0987,314.8916,207.9468,319.8977,210.581,317.2634,215.5871,324.6729,209.0987" style="stroke:#181818;stroke-width:1;"/><path d="M70.4989,423.4675 C81.359,392.5755 100.1671,349.3748 128,319.4883 C180.38,263.2436 255.1202,230.69 318.9427,210.8775" fill="none" style="stroke:#181818;stroke-width:1;"/></g><g class="link" data-entity-1="ent0002" data-entity-2="ent0009" data-link-type="dependency" id="lnk23"><polygon fill="#181818" points="345.4102,270.8649,335.6482,269.56,340.6124,272.2724,337.9001,277.2366,345.4102,270.8649" style="stroke:#181818;stroke-width:1;"/><path d="M84.202,423.3757 C96.1464,407.2475 111.4253,389.0868 128,375.4883 C192.0727,322.9206 275.8654,291.2658 339.6528,272.5538" fill="none" style="stroke:#181818;stroke-width:1;"/></g><g class="link" data-entity-1="ent0002" data-entity-2="ent0010" data-link-type="dependency" id="lnk24"><polygon fill="#181818" points="338.2093,604.8176,331.2537,597.8449,333.5448,603.017,328.3727,605.3081,338.2093,604.8176" style="stroke:#181818;stroke-width:1;"/><path d="M91.6047,487.2645 C102.6594,495.0086 115.4078,502.9173 128,508.4883 C197.796,539.3672 241.1406,494.4129 295,548.4883 C305.955,559.4872 292.2606,571.2787 303,582.4883 C312.6611,592.5723 319.4567,597.5786 332.6119,602.6569" fill="none" style="stroke:#181818;stroke-width:1;"/></g><g class="link" data-entity-1="ent0002" data-entity-2="ent0011" data-link-type="dependency" id="lnk25"><polygon fill="#181818" points="342.233,343.5917,332.4873,342.1699,337.4186,344.9415,334.647,349.8729,342.233,343.5917" style="stroke:#181818;stroke-width:1;"/><path d="M91.5182,439.6566 C102.7767,432.6541 115.6693,425.2329 128,419.4883 C197.8523,386.9454 275.8774,362.1964 336.4557,345.2115" fill="none" style="stroke:#181818;stroke-width:1;"/></g><g class="link" data-entity-1="ent0002" data-entity-2="ent0012" data-link-type="dependency" id="lnk26"><polygon fill="#181818" points="321.1664,411.734,311.6008,409.3889,316.2452,412.6183,313.0157,417.2628,321.1664,411.734" style="stroke:#181818;stroke-width:1;"/><path d="M91.6164,454.733 C103.1063,452.3898 116.1175,449.7774 128,447.4883 C192.1174,435.1363 258.2866,423.0334 315.261,412.7952" fill="none" style="stroke:#181818;stroke-width:1;"/></g><g class="link" data-entity-1="ent0002" data-entity-2="ent0013" data-link-type="dependency" id="lnk27"><polygon fill="#181818" points="383.8258,461.4883,374.8258,457.4883,378.8258,461.4883,374.8258,465.4883,383.8258,461.4883" style="stroke:#181818;stroke-width:1;"/><path d="M91.7125,461.4883 C158.6423,461.4883 305.0239,461.4883 377.8258,461.4883" fill="none" style="stroke:#181818;stroke-width:1;"/></g><g class="link" data-entity-1="ent0002" data-entity-2="ent0014" data-link-type="dependency" id="lnk28"><polygon fill="#181818" points="350.4396,521.2835,342.6184,515.2979,345.5771,520.1193,340.7556,523.078,350.4396,521.2835" style="stroke:#181818;stroke-width:1;"/><path d="M91.5323,467.5485 C137.1253,476.137 222.5726,492.5801 295,508.4883 C312.9977,512.4413 326.5094,515.554 344.6046,519.8865" fill="none" style="stroke:#181818;stroke-width:1;"/></g><g class="link" data-entity-1="ent0002" data-entity-2="ent0016" data-link-type="dependency" id="lnk29"><polygon fill="#181818" points="340.1505,683.3282,334.099,675.5579,335.741,680.9712,330.3277,682.6131,340.1505,683.3282" style="stroke:#181818;stroke-width:1;"/><path d="M80.1586,499.5502 C91.9452,517.209 108.2438,536.8278 128,548.4883 C192.8114,586.7412 243.4386,521.6683 295,576.4883 C306.6349,588.8585 293.0703,638.7116 303,652.4883 C312.4446,665.592 320.4797,672.8134 334.8591,680.4997" fill="none" style="stroke:#181818;stroke-width:1;"/></g><g class="link" data-entity-1="ent0002" data-entity-2="ent0018" data-link-type="dependency" id="lnk30"><polygon fill="#181818" points="341.818,843.7526,334.5488,837.1074,337.0755,842.1686,332.0143,844.6953,341.818,843.7526" style="stroke:#181818;stroke-width:1;"/><path d="M79.4992,499.7256 C89.0737,517.9708 100.4413,540.1997 110,560.4883 C118.6557,578.8601 117.6434,585.0187 128,602.4883 C192.2471,710.8613 198.0225,755.8312 303,825.4883 C314.7024,833.2534 322.4981,837.2996 336.127,841.8518" fill="none" style="stroke:#181818;stroke-width:1;"/></g><g class="link" data-entity-1="ent0002" data-entity-2="ent0020" data-link-type="dependency" id="lnk31"><polygon fill="#181818" points="335.1914,924.5462,326.9578,919.1418,330.2574,923.7367,325.6625,927.0362,335.1914,924.5462" style="stroke:#181818;stroke-width:1;"/><path d="M83.4595,499.9527 C93.4962,517.6914 104.1219,539.4464 110,560.4883 C125.5824,616.2687 94.008,773.5967 128,820.4883 C175.5657,886.1046 260.6629,912.318 329.2706,923.5748" fill="none" style="stroke:#181818;stroke-width:1;"/></g><g class="link" data-entity-1="ent0003" data-entity-2="ent0010" data-link-type="dependency" id="lnk32"><polygon fill="#181818" points="338.462,616.4883,329.462,612.4883,333.462,616.4883,329.462,620.4883,338.462,616.4883" style="stroke:#181818;stroke-width:1;"/><path d="M110.136,616.4883 C169.2896,616.4883 261.6129,616.4883 332.462,616.4883" fill="none" style="stroke:#181818;stroke-width:1;"/></g><g class="link" data-entity-1="ent0004" data-entity-2="ent0019" data-link-type="dependency" id="lnk33"><polygon fill="#181818" points="337.3474,1004.5677,328.9182,999.4737,332.3866,1003.9425,327.9178,1007.4109,337.3474,1004.5677" style="stroke:#181818;stroke-width:1;"/><path d="M108.6054,975.7399 C167.2756,983.134 260.0148,994.8216 331.3945,1003.8174" fill="none" style="stroke:#181818;stroke-width:1;"/></g><g class="link" data-entity-1="ent0004" data-entity-2="ent0020" data-link-type="dependency" id="lnk34"><polygon fill="#181818" points="335.205,941.4894,325.8475,938.4175,330.2305,941.9937,326.6543,946.3767,335.205,941.4894" style="stroke:#181818;stroke-width:1;"/><path d="M108.6054,964.4598 C166.6908,958.5717 258.035,949.3121 329.2356,942.0945" fill="none" style="stroke:#181818;stroke-width:1;"/></g><g class="link" data-entity-1="ent0017" data-entity-2="ent0016" data-link-type="dependency" id="lnk35"><polygon fill="#181818" points="425,731.6788,421,740.6788,425,736.6788,429,740.6788,425,731.6788" style="stroke:#181818;stroke-width:1;"/><path d="M425,768.3581 C425,756.873 425,749.1717 425,737.6788" fill="none" style="stroke:#181818;stroke-width:1;stroke-dasharray:7,7;"/><text fill="#000000" font-family="sans-serif" font-size="13" lengthAdjust="spacing" textLength="57.1924" x="384" y="755.0566">&#171;extend&#187;</text></g><g class="link" data-entity-1="ent0019" data-entity-2="ent0011" data-link-type="dependency" id="lnk36"><polygon fill="#181818" points="342.371,339.5225,332.5396,338.9352,337.689,341.2771,335.347,346.4265,342.371,339.5225" style="stroke:#181818;stroke-width:1;"/><path d="M337.2052,995.9619 C324.6407,990.2775 312.7076,982.9449 303,973.4883 C175.7163,849.4955 194.6155,773.8477 163,598.9883 C142.3759,484.9205 211.6072,430.3257 303,360.4883 C314.6338,351.5984 322.7595,346.8721 336.7526,341.6281" fill="none" style="stroke:#181818;stroke-width:1;stroke-dasharray:7,7;"/><text fill="#000000" font-family="sans-serif" font-size="13" lengthAdjust="spacing" textLength="26.1079" x="130" y="594.5566">may</text><text fill="#000000" font-family="sans-serif" font-size="13" lengthAdjust="spacing" textLength="4.1133" x="156.1079" y="594.5566">&#160;</text><text fill="#000000" font-family="sans-serif" font-size="13" lengthAdjust="spacing" textLength="38.2827" x="160.2212" y="594.5566">follow</text><text fill="#000000" font-family="sans-serif" font-size="13" lengthAdjust="spacing" textLength="4.1133" x="198.5039" y="594.5566">&#160;</text><text fill="#000000" font-family="sans-serif" font-size="13" lengthAdjust="spacing" textLength="90.6191" x="202.6172" y="594.5566">authentication</text></g><?plantuml-src TLHDRzGm4BtdLmnxNzJb6rHLgj8MLQBT5Kl59PSXcIHMat5aEomBuhypJfpWRK3QG-RvlV5yFE-ppc3L8ZHurBq3sv93niGfrn3iMpGETkGWHKEmXftHtvLLch61oppNFJj0BZnbFL0UB0dNaasIXae7JeDHLUsWK8Po9yh4FYhkq60BjiP27nHNK69ZAJhfC7_4YlRkA5Lu8NBLn8I3mUwhAbmDcxTdIOAvqmPMlb9zO38hG0jR_pKTVTHQCe0gYAMtOyQTRwK8rF5qujv8hT_GTzBeliZuZgp5IkeSk3VfNPBCDS7goP3iqJfgL_0hWQaDMCspodF9DQG9qEM036o0tbBkxrqzfEkpJSQVgLAIpNYT9m_2XtI2bveN6QUQIsLQe1PLyqGOpfQwbndlLSMW60vAXZg8W-ZQVt_IqlzIz-g9RfnZ48x1VvIlVNUsRmcmTxLVIewEPDZY7M-ma6C_Halz6rcB65M66re4MMYfvijtOxGKlWqbYzi3LIgKOCbyb_4LDUJcAqIPRdVNS7MTtkvlj_T1FvB2FXF9ypk9T--TaOip1hO4Wql-iU_tSqSTpTtOgHroTY7Pd9rAQkrq9G-ZdaGUMAesiyfGgrZUW9sD5UAbI9orFt9U6ytg9y4b5qOhMHThfqg_EzcIlFP7cZRtnNylyuZJjXtnV3LOXwwt6PT6jn1d2tdk8oWCLtx3suRr-Y9-3Z4uMJt68YV7SEpJ69-y5sEJhM8i-2U6JYrnai0lyhJwQUOnUjfr-FDQbYl_HG4Tn_qtFaqGl03FfnBW0voVqmz7N5nS944-7eUsXT7Y4KhTDFeGFrAVy0y0?></g></svg>